<svg xmlns="http://www.w3.org/2000/svg" viewBox="0 0 30.15 30.23"><defs><style>.cls-1{fill:#020202;}.cls-2{fill:#fff;stroke:#000;stroke-miterlimit:10;stroke-width:0.25px;}</style></defs><title>logo_github</title><g id="Ebene_2" data-name="Ebene 2"><rect class="cls-1" x="0.13" width="29.9" height="30.23"/></g><g id="Ebene_1" data-name="Ebene 1"><circle class="cls-1" cx="15.13" cy="15.33" r="14.9"/><path class="cls-2" d="M15,.43a15,15,0,0,0-4.7,29.2c.8.1,1-.3,1-.7v-2.6c-4.2.9-5.1-2-5.1-2a4.24,4.24,0,0,0-1.7-2.2c-1.4-.9.1-.9.1-.9a3.15,3.15,0,0,1,2.3,1.5,3.18,3.18,0,0,0,4.4,1.2,2.74,2.74,0,0,1,1-2c-3.3-.4-6.8-1.7-6.8-7.4a6,6,0,0,1,1.5-4,5.21,5.21,0,0,1,.1-4s1.3-.4,4.1,1.5a15.83,15.83,0,0,1,3.8-.5,15.83,15.83,0,0,1,3.8.5c2.9-1.9,4.1-1.5,4.1-1.5a5.21,5.21,0,0,1,.1,4,5.51,5.51,0,0,1,1.5,4c0,5.8-3.5,7-6.8,7.4a3.85,3.85,0,0,1,1,2.8v4.1a.72.72,0,0,0,1,.7A14.94,14.94,0,0,0,15,.43Z" transform="translate(0.13)"/></g></svg>